<svg width="189" height="188" viewBox="0 0 189 188" fill="none" xmlns="http://www.w3.org/2000/svg">
<path d="M168.433 10.2085H36.7066C25.6838 10.2085 16.748 17.8381 16.748 27.2496V80.0771C16.748 89.4887 25.6838 97.1183 36.7066 97.1183H120.96H168.433C179.456 97.1183 188.392 89.4887 188.392 80.0771V27.2496C188.392 17.8381 179.456 10.2085 168.433 10.2085Z" fill="#A3FDD2"/>
<path d="M24.4527 90.9098C13.4299 90.9098 4.49414 83.2802 4.49414 73.8686V21.0411C4.49414 11.6296 13.4299 4 24.4527 4H156.18C167.202 4 176.138 11.6296 176.138 21.0411V73.8686C176.138 83.2802 167.202 90.9098 156.18 90.9098H108.707M118.258 29.1357L131.231 47.0289M131.231 47.0289V66.2001M131.231 47.0289L144.204 29.1357M77.842 29.1357V54.2713C77.842 60.1536 83.4269 64.922 90.3161 64.922C97.2054 64.922 102.79 60.1536 102.79 54.2713V29.1357M36.9269 47.4549V64.922H49.8967C60.9901 64.922 65.2286 52.5643 55.8875 47.4549M36.9269 47.4549V29.9877H49.8169C60.8923 29.9877 65.1703 42.2968 55.8875 47.4549M36.9269 47.4549H55.8875" stroke="#11454D" stroke-width="7.13428" stroke-linecap="round" stroke-linejoin="round"/>
<path d="M67.6308 110.791L67.6045 163.327L59.2787 154.499C57.028 152.112 53.2931 152.025 50.9365 154.304C48.5799 156.583 48.4941 160.366 50.7447 162.752L68.5215 181.602C73.4452 186.822 77.3686 187.904 84.6639 187.904H99.5818C102.345 187.904 104.81 187.732 107.375 186.509C111.081 184.742 114.834 181.123 114.834 174.488V145.289C114.834 141.989 112.192 139.313 108.933 139.313C105.675 139.313 103.033 141.989 103.033 145.289V141.455C103.033 138.155 100.391 135.48 97.1326 135.48C93.874 135.48 91.2323 138.155 91.2323 141.455V137.171C91.2323 133.871 88.5906 131.196 85.3319 131.196C82.0732 131.196 79.4316 133.871 79.4316 137.171V110.791C79.4316 107.491 76.7899 104.815 73.5312 104.815C70.2725 104.815 67.6308 107.491 67.6308 110.791Z" fill="#A3FDD2"/>
<path d="M71.5937 138.591V129.234M71.5937 129.234C71.5937 125.934 74.2354 123.259 77.494 123.259C80.7527 123.259 83.3944 125.934 83.3944 129.234V133.518M71.5937 129.234V102.853C71.5937 99.5531 68.952 96.8779 65.6933 96.8779C62.4346 96.8779 59.793 99.5531 59.793 102.853L59.7666 155.389L51.4408 146.561C49.1901 144.175 45.4552 144.088 43.0986 146.367C40.742 148.646 40.6562 152.428 42.9068 154.815L60.6836 173.664C65.6073 178.885 69.5307 179.966 76.8261 179.966H91.7439C94.5072 179.966 96.9716 179.794 99.5369 178.571C103.243 176.804 106.996 173.185 106.996 166.55V137.351C106.996 134.051 104.354 131.376 101.095 131.376C97.8368 131.376 95.1951 134.051 95.1951 137.351M83.3944 133.518C83.3944 130.218 86.0361 127.543 89.2947 127.543C92.5534 127.543 95.1951 130.218 95.1951 133.518V137.351M83.3944 133.518V138.591M95.1951 138.591V137.351M47.7463 106.912C47.4699 105.641 47.3243 104.321 47.3243 102.966C47.3243 92.8791 55.3988 84.7021 65.3593 84.7021C75.3198 84.7021 83.3944 92.8791 83.3944 102.966C83.3944 104.161 83.281 105.329 83.0645 106.461" stroke="#11454D" stroke-width="7.13428" stroke-linecap="round" stroke-linejoin="round"/>
</svg>
