<svg width="190" height="192" viewBox="0 0 190 192" fill="none" xmlns="http://www.w3.org/2000/svg">
<path d="M97.1602 40.0919V7.44049" stroke="#A3FDD2" stroke-width="4.28057" stroke-linecap="round" stroke-linejoin="round"/>
<path d="M5.63789 94.2545L37.5996 94.2545" stroke="#A3FDD2" stroke-width="4.28057" stroke-linecap="round" stroke-linejoin="round"/>
<path d="M149.454 94.2545L181.416 94.2545" stroke="#A3FDD2" stroke-width="4.28057" stroke-linecap="round" stroke-linejoin="round"/>
<path d="M97.1602 187.008V154.357" stroke="#A3FDD2" stroke-width="4.28057" stroke-linecap="round" stroke-linejoin="round"/>
<path d="M167.329 54.3535H141.863V25.4551L161.254 7.62195C161.338 7.54461 161.474 7.59255 161.491 7.7055L164.936 30.334L187.619 33.2994C187.735 33.3147 187.785 33.4566 187.702 33.5407L167.329 54.3535Z" fill="#A3FDD2"/>
<path d="M102.373 99.8054C101.774 100.537 101.88 101.615 102.611 102.215C103.343 102.815 104.422 102.708 105.021 101.977L102.373 99.8054ZM167.329 54.3535V56.0657H168.049L168.553 55.5512L167.329 54.3535ZM187.702 33.5407L186.479 32.343L186.479 32.343L187.702 33.5407ZM175.544 21.7623C176.199 21.0803 176.177 19.9964 175.495 19.3413C174.813 18.6862 173.73 18.708 173.074 19.39L175.544 21.7623ZM187.619 33.2994L187.841 31.6016L187.841 31.6016L187.619 33.2994ZM161.491 7.7055L163.184 7.44783L163.184 7.44779L161.491 7.7055ZM161.254 7.62195L160.095 6.36166L160.095 6.36168L161.254 7.62195ZM141.863 25.4551L140.704 24.1948L140.151 24.7035V25.4551H141.863ZM105.021 101.977L143.187 55.4393L140.54 53.2677L102.373 99.8054L105.021 101.977ZM141.863 56.0657H167.329V52.6413H141.863V56.0657ZM168.553 55.5512L188.926 34.7384L186.479 32.343L166.106 53.1557L168.553 55.5512ZM143.098 55.5396L166.171 31.5202L163.701 29.1479L140.629 53.1673L143.098 55.5396ZM166.171 31.5202L175.544 21.7623L173.074 19.39L163.701 29.1479L166.171 31.5202ZM187.841 31.6016L165.158 28.6362L164.714 32.0318L187.397 34.9972L187.841 31.6016ZM166.629 30.0764L163.184 7.44783L159.799 7.96318L163.243 30.5917L166.629 30.0764ZM160.095 6.36168L140.704 24.1948L143.023 26.7154L162.413 8.88223L160.095 6.36168ZM140.151 25.4551V54.3535H143.576V25.4551H140.151ZM163.184 7.44779C162.961 5.97945 161.188 5.35622 160.095 6.36166L162.413 8.88224C161.488 9.733 159.988 9.20565 159.799 7.96321L163.184 7.44779ZM188.926 34.7384C189.996 33.6454 189.358 31.7999 187.841 31.6016L187.397 34.9972C186.113 34.8294 185.573 33.2678 186.479 32.343L188.926 34.7384Z" fill="#A3FDD2"/>
<path d="M174.782 97.2956C174.782 136.021 144.052 167.415 106.144 167.415C68.2362 167.415 37.5059 136.021 37.5059 97.2956C37.5059 58.5698 68.2362 27.1763 106.144 27.1763C144.052 27.1763 174.782 58.5698 174.782 97.2956Z" fill="#A3FDD2"/>
<path d="M163.555 96.698C163.555 136.255 132.185 168.192 93.6471 168.192C55.1093 168.192 23.739 136.255 23.739 96.698C23.739 57.141 55.1093 25.2043 93.6471 25.2043C132.185 25.2043 163.555 57.141 163.555 96.698Z" stroke="#11454D" stroke-width="7.13428"/>
<path d="M122.396 89.9563C123.869 96.5437 123.143 103.444 120.336 109.555C117.531 115.665 112.814 120.626 106.95 123.661C101.088 126.696 94.4077 127.638 87.9684 126.345C81.5282 125.052 75.682 121.593 71.3671 116.501C67.0511 111.407 64.5179 104.975 64.1848 98.2242C63.8517 91.4736 65.7388 84.81 69.5346 79.2947C73.3295 73.7807 78.8097 69.736 85.0927 67.7867C91.3746 65.8377 98.1125 66.0902 104.24 68.5058" stroke="#11454D" stroke-width="7.13428" stroke-linecap="round" stroke-linejoin="round"/>
<path d="M92.5466 94.9795C91.1818 96.4003 91.2272 98.6585 92.648 100.023C94.0688 101.388 96.3269 101.343 97.6917 99.9218L92.5466 94.9795ZM174.841 19.6068C176.205 18.186 176.16 15.9279 174.739 14.5631C173.318 13.1983 171.06 13.2437 169.696 14.6645L174.841 19.6068ZM165.288 50.913V54.4801H166.788L167.837 53.4083L165.288 50.913ZM139.822 22.0146L137.408 19.389L136.255 20.4489V22.0146H139.822ZM159.45 4.26501L155.924 4.80183L159.45 4.26501ZM159.213 4.18146L156.798 1.55589L159.213 4.18146ZM185.661 30.1002L188.21 32.5955L185.661 30.1002ZM185.578 29.8589L185.115 33.396L185.578 29.8589ZM97.6917 99.9218L142.395 53.3841L137.25 48.4419L92.5466 94.9795L97.6917 99.9218ZM139.822 54.4801H165.288V47.3459H139.822V54.4801ZM167.837 53.4083L188.21 32.5955L183.112 27.6049L162.739 48.4177L167.837 53.4083ZM142.395 53.3841L165.467 29.3647L160.322 24.4224L137.25 48.4419L142.395 53.3841ZM165.467 29.3647L174.841 19.6068L169.696 14.6645L160.322 24.4224L165.467 29.3647ZM186.04 26.3219L163.357 23.3565L162.432 30.4306L185.115 33.396L186.04 26.3219ZM166.421 26.3567L162.977 3.7282L155.924 4.80183L159.368 27.4304L166.421 26.3567ZM156.798 1.55589L137.408 19.389L142.237 24.6402L161.627 6.80704L156.798 1.55589ZM136.255 22.0146V50.913H143.389V22.0146H136.255ZM162.977 3.7282C162.53 0.791396 158.984 -0.455025 156.798 1.55589L161.627 6.80704C159.609 8.66326 156.336 7.51272 155.924 4.80183L162.977 3.7282ZM188.21 32.5955C190.35 30.4094 189.073 26.7184 186.04 26.3219L185.115 33.396C182.315 33.0299 181.137 29.6228 183.112 27.6049L188.21 32.5955Z" fill="#11454D"/>
<path d="M93.6543 40.7798V8.12836" stroke="#11454D" stroke-width="7.13428" stroke-linecap="round" stroke-linejoin="round"/>
<path d="M3.99922 97.4503L35.9609 97.4503" stroke="#11454D" stroke-width="7.13428" stroke-linecap="round" stroke-linejoin="round"/>
<path d="M150.956 97.4503L182.918 97.4503" stroke="#11454D" stroke-width="7.13428" stroke-linecap="round" stroke-linejoin="round"/>
<path d="M93.6543 187.898V155.247" stroke="#11454D" stroke-width="7.13428" stroke-linecap="round" stroke-linejoin="round"/>
</svg>
