<svg width="222" height="16" viewBox="0 0 222 16" fill="none" xmlns="http://www.w3.org/2000/svg">
<path d="M7.90187 15.665C12.2167 15.665 15.8124 12.4803 15.8124 8.06274C15.8124 3.64519 12.2167 0.460443 7.90187 0.460443C3.68979 0.460443 0.0941058 3.64519 0.0941058 8.06274C0.0941058 12.4803 3.68979 15.665 7.90187 15.665ZM59.369 15.665C63.6839 15.665 67.2795 12.4803 67.2795 8.06274C67.2795 3.64519 63.6839 0.460443 59.369 0.460443C55.157 0.460443 51.5613 3.64519 51.5613 8.06274C51.5613 12.4803 55.157 15.665 59.369 15.665ZM110.836 15.665C115.151 15.665 118.747 12.4803 118.747 8.06274C118.747 3.64519 115.151 0.460443 110.836 0.460443C106.624 0.460443 103.028 3.64519 103.028 8.06274C103.028 12.4803 106.624 15.665 110.836 15.665ZM162.303 15.665C166.618 15.665 170.214 12.4803 170.214 8.06274C170.214 3.64519 166.618 0.460443 162.303 0.460443C158.091 0.460443 154.496 3.64519 154.496 8.06274C154.496 12.4803 158.091 15.665 162.303 15.665ZM213.771 15.665C218.085 15.665 221.681 12.4803 221.681 8.06274C221.681 3.64519 218.085 0.460443 213.771 0.460443C209.558 0.460443 205.963 3.64519 205.963 8.06274C205.963 12.4803 209.558 15.665 213.771 15.665Z" fill="#76FBBB"/>
</svg>
