<svg width="184" height="190" viewBox="0 0 184 190" fill="none" xmlns="http://www.w3.org/2000/svg">
<g filter="url(#filter0_d)">
<path d="M165.696 67.5969C165.696 116.993 118.159 149.614 96.2184 159.866C94.39 160.798 91.6475 161.73 90.7333 162.662C88.905 161.73 87.0766 160.798 85.2483 159.866C63.3081 149.614 27.7695 116.993 27.7695 67.5969C27.7695 42.4326 34.0545 22.8604 55.9947 22.8604C70.6215 22.8604 83.4199 31.2485 90.7333 45.2286C98.0467 32.1805 110.845 22.8604 125.472 22.8604C147.412 21.9284 165.696 42.4326 165.696 67.5969Z" fill="#A3FDD2"/>
<path d="M165.695 69.5365C165.695 117.925 118.318 149.88 96.452 159.922C94.6298 160.835 91.8965 161.748 90.9854 162.661C89.1632 161.748 87.341 160.835 85.5188 159.922C63.6525 149.88 16.2754 117.925 16.2754 69.5365C16.2754 44.8858 34.4973 25.713 56.3637 25.713C70.9412 25.713 83.6966 33.93 90.9854 47.6248C98.2742 34.843 111.03 25.713 125.607 25.713C147.473 24.8001 165.695 44.8858 165.695 69.5365Z" stroke="#11454D" stroke-width="7.13428" stroke-miterlimit="10" stroke-linecap="round" stroke-linejoin="round"/>
</g>
<defs>
<filter id="filter0_d" x="1.29413" y="22.1155" width="179.384" height="166.943" filterUnits="userSpaceOnUse" color-interpolation-filters="sRGB">
<feFlood flood-opacity="0" result="BackgroundImageFix"/>
<feColorMatrix in="SourceAlpha" type="matrix" values="0 0 0 0 0 0 0 0 0 0 0 0 0 0 0 0 0 0 127 0" result="hardAlpha"/>
<feOffset dy="11.4149"/>
<feGaussianBlur stdDeviation="5.70743"/>
<feColorMatrix type="matrix" values="0 0 0 0 0 0 0 0 0 0 0 0 0 0 0 0 0 0 0.25 0"/>
<feBlend mode="normal" in2="BackgroundImageFix" result="effect1_dropShadow"/>
<feBlend mode="normal" in="SourceGraphic" in2="effect1_dropShadow" result="shape"/>
</filter>
</defs>
</svg>
