<svg width="503" height="119" viewBox="0 0 503 119" fill="none" xmlns="http://www.w3.org/2000/svg">
<path d="M114.307 0.0869141V7.81033H7.84129V101.595H0.158203V0.0869141H114.307Z" fill="#06E57A"/>
<path d="M0.158203 110.421H106.624V25.4639H98.9408V30.9806L84.6722 22.1538L98.9408 13.3271V17.7404H114.307V118.145H0.158203V110.421Z" fill="#06E57A"/>
<path d="M46.8055 81.1828H39.1224V74.011H29.793V53.0475H44.0616V61.3226H37.4761V66.2876H76.9891V61.3226H84.1234V74.011H76.9891V81.1828H69.306V74.011H46.8055V81.1828Z" fill="#06E57A"/>
<path d="M36.9273 48.6341L42.4152 35.394H72.5987L77.5379 48.6341H69.306L67.1108 43.1174H46.8055L44.6104 48.6341H36.9273Z" fill="#06E57A"/>
<path d="M179.844 77.5426C186.716 77.5426 192.736 74.1066 196.314 68.9245L189.386 64.1366C187.341 67.291 184.331 69.2061 180.185 69.2061C173.484 69.2061 168.94 63.7986 168.94 57.3773C168.94 50.9559 173.654 45.7174 180.242 45.7174C184.331 45.7174 187.341 47.6325 189.386 50.7869L196.314 45.999C192.736 40.8169 186.716 37.3809 179.844 37.3809C168.827 37.3809 159.967 46.4496 159.967 57.3773C159.967 68.4175 168.827 77.5426 179.844 77.5426ZM247.72 76.8667L233.295 38.0568H223.583L209.101 76.8667H218.642L221.539 67.8542H235.283L238.236 76.8667H247.72ZM228.354 46.506L232.784 60.1936H223.981L228.354 46.506ZM293.728 76.8667L283.675 62.7284C288.73 61.6018 292.819 56.3633 292.819 50.8995C292.819 44.4782 288.73 38.0568 279.643 38.0568H263.627V76.8667H272.544V63.2354H274.361L283.335 76.8667H293.728ZM278.45 45.7737C282.085 45.7737 283.846 48.5338 283.846 51.1249C283.846 53.7159 282.142 56.2507 278.223 56.2507H272.544V45.7737H278.45ZM320.908 76.8667V38.0568H311.992V76.8667H320.908ZM353.986 77.5426C361.142 77.5426 368.411 73.825 368.411 65.4885C368.411 58.4475 362.732 55.6311 357.166 53.9412L353.077 52.6457C349.442 51.6318 349.215 49.8856 349.215 49.0971C349.215 46.9566 351.033 45.0978 353.816 45.0978C356.882 45.0978 358.302 47.0692 358.302 49.3787H367.219C367.219 41.8308 361.483 37.3809 353.986 37.3809C346.205 37.3809 340.185 42.2814 340.185 49.266C340.185 52.9273 341.832 58.1658 350.465 60.4753L355.122 61.8835C358.586 63.01 359.438 64.4182 359.438 65.9391C359.438 68.4738 357.223 69.9384 354.327 69.9384C351.26 69.9384 348.761 68.0232 348.761 65.5448H339.844C339.844 72.6984 345.637 77.5426 353.986 77.5426ZM382.854 38.0568V45.7737H393.19V76.8667H402.107V45.7737H412.443V38.0568H382.854ZM460.483 76.8667L446.057 38.0568H436.346L421.863 76.8667H431.405L434.301 67.8542H448.045L450.998 76.8667H460.483ZM441.116 46.506L445.546 60.1936H436.743L441.116 46.506ZM487.988 77.5426C495.143 77.5426 502.413 73.825 502.413 65.4885C502.413 58.4475 496.734 55.6311 491.168 53.9412L487.079 52.6457C483.444 51.6318 483.217 49.8856 483.217 49.0971C483.217 46.9566 485.034 45.0978 487.817 45.0978C490.884 45.0978 492.304 47.0692 492.304 49.3787H501.22C501.22 41.8308 495.484 37.3809 487.988 37.3809C480.207 37.3809 474.187 42.2814 474.187 49.266C474.187 52.9273 475.834 58.1658 484.466 60.4753L489.123 61.8835C492.588 63.01 493.44 64.4182 493.44 65.9391C493.44 68.4738 491.225 69.9384 488.328 69.9384C485.261 69.9384 482.763 68.0232 482.763 65.5448H473.846C473.846 72.6984 479.639 77.5426 487.988 77.5426Z" fill="white"/>
</svg>
