<svg width="162" height="184" viewBox="0 0 162 184" fill="none" xmlns="http://www.w3.org/2000/svg">
<path d="M50.8604 67.8367C51.7297 69.1517 52.2588 70.7368 52.3292 72.3915C52.3877 73.825 52.2603 75.6974 51.6759 77.9948C51.2626 80.8578 51.5515 85.0438 51.5515 89.3653C51.5515 90.5533 50.7226 91.5147 49.7019 91.5147H46.5814C45.5592 91.5147 44.7319 90.5515 44.7319 89.3653V87.8363C44.7319 86.8299 43.916 86.0141 42.9097 86.0141H16.3424C15.2318 86.0141 14.3973 87.0018 14.3989 88.1124C14.3996 88.6138 14.3594 89.0847 14.2365 89.3653C13.9081 90.115 13.0607 91.5187 11.4562 91.5166H8.33571C7.31346 91.5166 6.48616 90.5534 6.48616 89.3672V78.9672C6.36942 78.2693 6.25945 77.6717 6.16068 77.135C5.83469 75.3635 5.63065 74.2548 5.70767 72.3915C5.77655 70.7368 6.30718 69.1517 7.17496 67.8367C9.1354 64.8704 9.51756 62.5154 9.51756 62.5154C11.0584 57.8283 12.4252 54.7052 13.4309 52.723C14.4891 50.6433 16.3191 49.2413 18.3815 48.9312C22.5316 48.3077 35.5023 48.3077 39.6524 48.9312C41.7162 49.2395 43.5463 50.6416 44.6044 52.723C45.6102 54.7052 46.9785 57.8283 48.5178 62.5154C48.5178 62.5154 48.8999 64.8704 50.8604 67.8367Z" fill="#A3FDD2"/>
<path d="M46.3791 60.0272C46.3791 60.0272 46.7613 62.3822 48.7217 65.3484C49.591 66.6635 50.1201 68.2486 50.1906 69.9032C50.249 71.3368 50.1216 73.2092 49.5372 75.5066C49.124 78.3696 49.4128 82.5555 49.4128 86.8771C49.4128 88.0651 48.584 89.0265 47.5633 89.0265H44.4427C43.4205 89.0265 42.5932 88.0633 42.5932 86.8771V85.3481C42.5932 84.3417 41.7774 83.5259 40.771 83.5259H14.2037C13.0931 83.5259 12.2586 84.5136 12.2602 85.6242C12.2609 86.1256 12.2207 86.5965 12.0978 86.8771C11.7695 87.6267 10.9221 89.0305 9.31748 89.0284H6.19704C5.17479 89.0284 4.34749 88.0652 4.34749 86.879V76.479C4.23075 75.7811 4.12078 75.1835 4.02201 74.6468C3.69601 72.8753 3.49198 71.7666 3.569 69.9032C3.63788 68.2486 4.16851 66.6635 5.03629 65.3484C6.99673 62.3822 7.37889 60.0272 7.37889 60.0272M46.3791 60.0272C44.8399 55.3401 43.4715 52.217 42.4658 50.2348C41.4076 48.1533 39.5775 46.7513 37.5137 46.443C33.3636 45.8195 20.3929 45.8195 16.2428 46.443C14.1805 46.7531 12.3504 48.1551 11.2922 50.2348C10.2865 52.217 8.91969 55.3401 7.37889 60.0272M46.3791 60.0272C30.8038 62.9082 13.8892 61.2276 7.37889 60.0272" stroke="#11454D" stroke-width="5.74692"/>
<path d="M50.8172 57.4922C50.6673 56.7119 50.0364 56.1824 49.3484 56.1824H48.1014C47.3025 56.1824 46.6551 56.9349 46.6551 57.8633V58.8961H45.9941L46.3733 59.943H47.8271C48.5796 59.943 49.3245 59.7548 50.0079 59.3908C50.6238 59.0634 50.9686 58.2795 50.8172 57.4922Z" fill="#11454D"/>
<path d="M7.08667 58.8961V57.8633C7.08667 56.9348 6.43915 56.1824 5.64179 56.1824H4.39485C3.70695 56.1824 3.07594 56.712 2.92602 57.4922C2.77464 58.2777 3.12086 59.0634 3.73535 59.389C4.42026 59.7531 5.16371 59.9412 5.91614 59.9412H7.37L7.74917 58.8943H7.08667V58.8961Z" fill="#11454D"/>
<path d="M36.5609 73.1017C36.9661 73.1017 37.2305 73.5272 37.051 73.8905L35.5033 77.0227C35.4112 77.2091 35.2212 77.3272 35.0132 77.3272H18.7322C18.5242 77.3272 18.3342 77.2091 18.2421 77.0227L16.6945 73.8905C16.5149 73.5272 16.7793 73.1017 17.1845 73.1017H36.5609Z" fill="#11454D"/>
<path d="M105.257 44.8491C106.126 46.1641 106.655 47.7492 106.726 49.4039C106.784 50.8374 106.657 52.7098 106.072 55.0072C105.659 57.8702 105.948 62.0562 105.948 66.3777C105.948 67.5657 105.119 68.5271 104.098 68.5271H100.978C99.9556 68.5271 99.1283 67.5639 99.1283 66.3777V64.8487C99.1283 63.8423 98.3125 63.0265 97.3061 63.0265H70.7389C69.6283 63.0265 68.7938 64.0142 68.7954 65.1248C68.7961 65.6262 68.7558 66.0971 68.6329 66.3777C68.3046 67.1274 67.4572 68.5311 65.8526 68.529H62.7322C61.7099 68.529 60.8826 67.5658 60.8826 66.3796V55.9796C60.7659 55.2817 60.6559 54.6841 60.5572 54.1474C60.2312 52.3759 60.0271 51.2672 60.1042 49.4039C60.173 47.7492 60.7037 46.1641 61.5714 44.8491C63.5319 41.8828 63.914 39.5278 63.914 39.5278C65.4549 34.8407 66.8217 31.7176 67.8274 29.7354C68.8856 27.6557 70.7156 26.2537 72.778 25.9436C76.9281 25.3201 89.8988 25.3201 94.0489 25.9436C96.1127 26.2519 97.9427 27.6539 99.0009 29.7354C100.007 31.7176 101.375 34.8407 102.914 39.5278C102.914 39.5278 103.296 41.8828 105.257 44.8491Z" fill="#A3FDD2"/>
<path d="M100.776 37.0396C100.776 37.0396 101.158 39.3946 103.118 42.3608C103.988 43.6759 104.517 45.261 104.587 46.9156C104.645 48.3491 104.518 50.2216 103.934 52.519C103.52 55.382 103.809 59.5679 103.809 63.8895C103.809 65.0775 102.98 66.0389 101.96 66.0389H98.8392C97.817 66.0389 96.9897 65.0757 96.9897 63.8895V62.3604C96.9897 61.3541 96.1739 60.5383 95.1675 60.5383H68.6002C67.4896 60.5383 66.6551 61.526 66.6567 62.6366C66.6574 63.138 66.6172 63.6089 66.4943 63.8895C66.1659 64.6391 65.3185 66.0429 63.714 66.0408H60.5935C59.5713 66.0408 58.744 65.0776 58.744 63.8914V53.4913C58.6272 52.7935 58.5173 52.1959 58.4185 51.6592C58.0925 49.8877 57.8885 48.7789 57.9655 46.9156C58.0344 45.261 58.565 43.6759 59.4328 42.3608C61.3932 39.3946 61.7754 37.0396 61.7754 37.0396M100.776 37.0396C99.2363 32.3525 97.868 29.2294 96.8623 27.2472C95.8041 25.1657 93.974 23.7636 91.9102 23.4554C87.7601 22.8319 74.7894 22.8319 70.6393 23.4554C68.5769 23.7654 66.7469 25.1675 65.6887 27.2472C64.683 29.2294 63.3162 32.3525 61.7754 37.0396M100.776 37.0396C85.2003 39.9206 68.2857 38.24 61.7754 37.0396" stroke="#11454D" stroke-width="5.74692"/>
<path d="M105.214 34.5046C105.064 33.7243 104.433 33.1948 103.745 33.1948H102.498C101.699 33.1948 101.052 33.9473 101.052 34.8756V35.9085H100.391L100.77 36.9553H102.224C102.976 36.9553 103.721 36.7672 104.404 36.4032C105.02 36.0758 105.365 35.2919 105.214 34.5046Z" fill="#11454D"/>
<path d="M61.4832 35.9085V34.8756C61.4832 33.9472 60.8356 33.1948 60.0383 33.1948H58.7913C58.1034 33.1948 57.4724 33.7244 57.3225 34.5046C57.1711 35.2901 57.5173 36.0758 58.1318 36.4014C58.8167 36.7655 59.5602 36.9536 60.3126 36.9536H61.7665L62.1457 35.9067H61.4832V35.9085Z" fill="#11454D"/>
<path d="M90.9574 50.1141C91.3626 50.1141 91.627 50.5396 91.4475 50.903L89.8998 54.0351C89.8077 54.2216 89.6177 54.3396 89.4097 54.3396H73.1287C72.9207 54.3396 72.7307 54.2216 72.6386 54.0351L71.0909 50.903C70.9114 50.5396 71.1758 50.1141 71.581 50.1141H90.9574Z" fill="#11454D"/>
<path d="M159.653 67.8368C160.523 69.1519 161.052 70.7369 161.122 72.3916C161.181 73.8251 161.053 75.6976 160.469 77.9949C160.056 80.8579 160.344 85.0439 160.344 89.3654C160.344 90.5534 159.516 91.5148 158.495 91.5148H155.374C154.352 91.5148 153.525 90.5516 153.525 89.3654V87.8364C153.525 86.83 152.709 86.0142 151.703 86.0142H125.135C124.025 86.0142 123.19 87.002 123.192 88.1126C123.193 88.614 123.152 89.0848 123.029 89.3654C122.701 90.1151 121.854 91.5189 120.249 91.5168H117.129C116.106 91.5168 115.279 90.5535 115.279 89.3674V78.9673C115.162 78.2694 115.052 77.6719 114.954 77.1351C114.628 75.3636 114.424 74.2549 114.501 72.3916C114.57 70.7369 115.1 69.1519 115.968 67.8368C117.928 64.8705 118.311 62.5156 118.311 62.5156C119.851 57.8284 121.218 54.7053 122.224 52.7232C123.282 50.6435 125.112 49.2414 127.174 48.9313C131.325 48.3078 144.295 48.3078 148.445 48.9313C150.509 49.2396 152.339 50.6417 153.397 52.7232C154.403 54.7053 155.771 57.8284 157.311 62.5156C157.311 62.5156 157.693 64.8705 159.653 67.8368Z" fill="#A3FDD2"/>
<path d="M155.172 60.0273C155.172 60.0273 155.554 62.3823 157.515 65.3486C158.384 66.6636 158.913 68.2487 158.984 69.9034C159.042 71.3369 158.915 73.2093 158.33 75.5067C157.917 78.3697 158.206 82.5557 158.206 86.8772C158.206 88.0652 157.377 89.0266 156.356 89.0266H153.236C152.213 89.0266 151.386 88.0634 151.386 86.8772V85.3482C151.386 84.3418 150.57 83.526 149.564 83.526H122.997C121.886 83.526 121.052 84.5137 121.053 85.6243C121.054 86.1257 121.014 86.5966 120.891 86.8772C120.562 87.6269 119.715 89.0306 118.11 89.0286H114.99C113.968 89.0286 113.14 88.0653 113.14 86.8791V76.4791C113.024 75.7812 112.914 75.1836 112.815 74.6469C112.489 72.8754 112.285 71.7667 112.362 69.9034C112.431 68.2487 112.961 66.6636 113.829 65.3486C115.79 62.3823 116.172 60.0273 116.172 60.0273M155.172 60.0273C153.633 55.3402 152.264 52.2171 151.259 50.235C150.201 48.1535 148.371 46.7514 146.307 46.4431C142.157 45.8196 129.186 45.8196 125.036 46.4431C122.973 46.7532 121.143 48.1552 120.085 50.235C119.079 52.2171 117.713 55.3402 116.172 60.0273M155.172 60.0273C139.597 62.9083 122.682 61.2278 116.172 60.0273" stroke="#11454D" stroke-width="5.74692"/>
<path d="M159.61 57.4923C159.46 56.712 158.829 56.1826 158.141 56.1826H156.894C156.095 56.1826 155.448 56.9351 155.448 57.8634V58.8962H154.787L155.166 59.9431H156.62C157.373 59.9431 158.117 59.7549 158.801 59.391C159.417 59.0635 159.762 58.2797 159.61 57.4923Z" fill="#11454D"/>
<path d="M115.88 58.8962V57.8634C115.88 56.935 115.232 56.1826 114.435 56.1826H113.188C112.5 56.1826 111.869 56.7121 111.719 57.4923C111.568 58.2779 111.914 59.0635 112.528 59.3892C113.213 59.7532 113.957 59.9413 114.709 59.9413H116.163L116.542 58.8944H115.88V58.8962Z" fill="#11454D"/>
<path d="M145.354 73.1018C145.759 73.1018 146.023 73.5273 145.844 73.8906L144.296 77.0228C144.204 77.2093 144.014 77.3273 143.806 77.3273H127.525C127.317 77.3273 127.127 77.2093 127.035 77.0228L125.487 73.8906C125.308 73.5273 125.572 73.1018 125.978 73.1018H145.354Z" fill="#11454D"/>
<path d="M91.178 116.584L91.1587 154.616L85.0552 148.225C83.4052 146.497 80.6672 146.434 78.9396 148.084C77.212 149.734 77.149 152.472 78.799 154.2L91.8309 167.845C95.4405 171.624 98.3167 172.407 103.665 172.407H114.601C116.627 172.407 118.433 172.283 120.314 171.397C123.031 170.118 125.782 167.498 125.782 162.695V141.557C125.782 139.169 123.845 137.232 121.457 137.232C119.068 137.232 117.131 139.169 117.131 141.557V138.783C117.131 136.394 115.194 134.457 112.806 134.457C110.417 134.457 108.48 136.394 108.48 138.783V135.681C108.48 133.292 106.543 131.356 104.155 131.356C101.766 131.356 99.829 133.292 99.829 135.681V116.584C99.829 114.195 97.8924 112.258 95.5035 112.258C93.1146 112.258 91.178 114.195 91.178 116.584Z" fill="#A3FDD2"/>
<path d="M94.081 136.709V129.935M94.081 129.935C94.081 127.546 96.0176 125.609 98.4065 125.609C100.795 125.609 102.732 127.546 102.732 129.935V133.036M94.081 129.935V110.837C94.081 108.448 92.1444 106.512 89.7555 106.512C87.3666 106.512 85.43 108.448 85.43 110.837L85.4107 148.869L79.3071 142.478C77.6572 140.75 74.9191 140.687 73.1915 142.337C71.464 143.987 71.401 146.725 73.0509 148.453L86.0829 162.098C89.6924 165.878 92.5687 166.661 97.9168 166.661H108.853C110.879 166.661 112.685 166.536 114.566 165.651C117.283 164.372 120.034 161.752 120.034 156.949V135.811C120.034 133.422 118.097 131.485 115.708 131.485C113.32 131.485 111.383 133.422 111.383 135.811M102.732 133.036C102.732 130.647 104.669 128.71 107.057 128.71C109.446 128.71 111.383 130.647 111.383 133.036V135.811M102.732 133.036V136.709M111.383 136.709V135.811M76.5987 113.775C76.3961 112.855 76.2893 111.9 76.2893 110.919C76.2893 103.617 82.2087 97.6975 89.5106 97.6975C96.8126 97.6975 102.732 103.617 102.732 110.919C102.732 111.784 102.649 112.63 102.49 113.449" stroke="#11454D" stroke-width="5.74692" stroke-linecap="round" stroke-linejoin="round"/>
</svg>
