<svg width="87" height="87" viewBox="0 0 87 87" fill="none" xmlns="http://www.w3.org/2000/svg">
<path d="M27.6485 26.6423C27.6485 22.0235 32.6484 19.1368 36.6485 21.4462L65.8984 38.3336C69.8984 40.643 69.8985 46.4166 65.8985 48.726L36.6485 65.6134C32.6485 67.9228 27.6485 65.0361 27.6485 60.4173L27.6485 26.6423Z" fill="white"/>
<path d="M46.5083 43.5625L46.9804 40.4859H44.0284V38.4894C44.0284 37.6477 44.4407 36.8272 45.7629 36.8272H47.105V34.2079C47.105 34.2079 45.8871 34 44.7226 34C42.2915 34 40.7024 35.4736 40.7024 38.1411V40.4859H38V43.5625H40.7024V51H44.0284V43.5625H46.5083Z" fill="#2E5F91"/>
</svg>
