<svg width="182" height="36" viewBox="0 0 182 36" fill="none" xmlns="http://www.w3.org/2000/svg">
<g clip-path="url(#clip0)">
<path d="M18.0326 17.2101C17.7671 20.162 17.4897 23.114 17.2362 26.068C16.9807 29.0495 16.7471 32.0329 16.5016 35.0519C8.19386 30.8986 -1.55707 13.0883 0.209474 5.04769C2.9561 6.25881 5.65083 7.4463 8.24176 8.58849C8.92044 5.96145 9.62706 3.21822 10.3776 0.30957C14.278 2.38521 16.9048 5.35294 19.2822 8.68498C21.8731 5.39626 24.6217 2.43444 28.5999 0.740846C29.9054 3.31668 30.4164 6.03825 30.5621 8.73815C33.3526 7.49553 36.1033 6.2726 38.8978 5.028C40.85 12.8737 31.3785 30.0952 22.5059 35.1562C22.3582 33.4292 22.1945 31.7277 22.0727 30.0223C21.8352 26.6745 21.6336 23.3247 21.3841 19.9769C21.3401 19.392 21.434 19.01 22.0148 18.7205C22.8173 18.3188 23.5638 17.8107 24.5199 17.2357C22.2065 17.2357 20.1066 17.2357 18.0047 17.2357C18.0047 15.6779 18.0047 14.1202 18.0047 12.5802C15.7611 12.1667 12.7949 14.906 13.3817 17.2101C14.9167 17.2101 16.4757 17.2101 18.0326 17.2101Z" fill="white"/>
<path d="M180.375 15.0716C179.444 15.0716 178.618 15.1031 177.796 15.0499C177.57 15.0361 177.269 14.8116 177.163 14.6048C176.532 13.374 175.44 12.864 174.143 12.6572C172.566 12.4071 171.037 12.4524 169.656 13.3937C168.727 14.0259 168.43 14.9436 168.606 15.9538C168.767 16.8814 169.256 17.5805 170.34 17.8384C172.554 18.3623 174.758 18.9432 176.933 19.6049C179.596 20.4143 180.808 21.8873 180.981 24.2997C181.171 26.9307 180.079 28.772 177.658 29.9891C175.005 31.3223 169.161 31.1726 166.809 28.8843C165.769 27.8721 165.162 26.7259 164.965 25.2076C165.881 25.2076 166.737 25.18 167.59 25.2293C167.775 25.2391 168.033 25.4892 168.109 25.6842C168.494 26.6688 169.238 27.3148 170.193 27.6436C172.193 28.3329 174.211 28.4471 176.179 27.4703C177.377 26.8756 177.908 25.9402 177.806 24.6129C177.708 23.3407 176.868 22.6672 175.794 22.3304C174.255 21.846 172.66 21.523 171.087 21.1429C169.121 20.6664 167.374 19.9239 166.113 18.2087C164.957 16.6372 165.107 13.0944 167.167 11.5504C170.071 9.37436 173.285 9.31332 176.598 10.4673C178.754 11.2117 179.924 12.7872 180.375 15.0716Z" fill="white"/>
<path d="M134.374 10.1519C135.386 10.1519 136.344 10.1519 137.45 10.1519C137.45 10.5162 137.45 10.8588 137.45 11.2035C137.45 14.6931 137.428 18.1846 137.459 21.6742C137.475 23.5313 137.789 25.3371 139.31 26.6467C141.136 28.2221 143.284 28.3442 145.476 27.6333C147.628 26.9342 148.753 25.3194 148.815 23.1374C148.927 19.2264 148.913 15.3134 148.953 11.4024C148.957 11.0183 148.953 10.6324 148.953 10.1814C150.021 10.1814 151.001 10.1814 152.067 10.1814C152.095 10.4177 152.149 10.6639 152.149 10.9081C152.155 14.7561 152.235 18.608 152.125 22.4541C152.045 25.2091 151.191 27.7022 148.698 29.3683C146.983 30.5164 145.063 30.9023 143.035 30.8767C140.484 30.8433 138.196 30.1363 136.42 28.2339C135.056 26.7747 134.431 24.9905 134.399 23.0685C134.324 18.801 134.374 14.5355 134.374 10.1519Z" fill="white"/>
<path d="M111.944 26.5343C113.037 23.9073 114.049 21.4753 115.061 19.0453C116.211 16.2844 117.347 13.5177 118.535 10.7725C118.658 10.489 119.066 10.1739 119.371 10.1443C120.223 10.0597 121.09 10.1148 122.118 10.1148C121.315 12.0466 120.577 13.8701 119.802 15.6779C117.834 20.278 115.83 24.8644 113.894 29.4783C113.521 30.3684 113.097 30.78 112.039 30.7071C110.397 30.5929 110.389 30.6776 109.74 29.1554C108.195 25.532 106.666 21.9027 105.107 18.2871C104.079 15.9024 103.005 13.5354 101.957 11.1565C101.829 10.8671 101.746 10.5599 101.59 10.1168C102.704 10.1168 103.688 10.0853 104.668 10.1424C104.869 10.1542 105.133 10.4614 105.231 10.6879C106.72 14.1478 108.197 17.6137 109.654 21.0874C110.295 22.6155 110.878 24.1653 111.496 25.7013C111.59 25.9337 111.734 26.1464 111.944 26.5343Z" fill="white"/>
<path d="M93.1667 30.4633C93.039 30.5164 93.0091 30.5381 92.9771 30.5401C89.987 30.6956 90.0169 30.6838 88.8272 27.9032C87.1745 24.0455 85.4698 20.2074 83.7891 16.3595C83.4278 15.5304 83.0825 14.6954 82.6413 13.6557C81.1423 17.0546 79.729 20.229 78.3397 23.4153C77.3916 25.5913 76.4934 27.791 75.5233 29.9572C75.4015 30.227 74.9763 30.4967 74.6689 30.5282C73.8565 30.607 73.0321 30.5558 72.084 30.5558C72.9024 28.7047 73.6609 26.9856 74.4194 25.2684C75.4294 22.9762 76.4235 20.678 77.4515 18.3937C78.6392 15.7569 79.8448 13.1279 81.0784 10.5127C81.1842 10.2882 81.5515 10.0716 81.815 10.046C84.0166 9.83924 84.0186 9.85303 84.8929 11.8046C87.6236 17.8896 90.3542 23.9726 93.0809 30.0596C93.1288 30.1758 93.1348 30.3097 93.1667 30.4633Z" fill="white"/>
<path d="M63.7294 10.1758C63.7294 11.1033 63.7294 11.9423 63.7294 12.8974C61.4917 12.8974 59.2841 12.8974 56.9806 12.8974C56.9806 18.8054 56.9806 24.5991 56.9806 30.4756C55.9107 30.4756 54.9346 30.4756 53.8227 30.4756C53.8227 24.668 53.8227 18.8487 53.8227 12.9289C51.4793 12.9289 49.2677 12.9289 46.9961 12.9289C46.9961 11.9659 46.9961 11.1053 46.9961 10.1778C52.5632 10.1758 58.0984 10.1758 63.7294 10.1758Z" fill="white"/>
</g>
<defs>
<clipPath id="clip0">
<rect width="181.002" height="34.8467" fill="white" transform="translate(0 0.30957)"/>
</clipPath>
</defs>
</svg>
