<svg width="16" height="16" viewBox="0 0 16 16" fill="none" xmlns="http://www.w3.org/2000/svg">
<path opacity="0.4" d="M15.5233 8.93921H8.54418L13.1921 13.5871C13.3698 13.7648 13.6621 13.7792 13.8448 13.6071C14.983 12.5348 15.7659 11.0892 15.9957 9.46421C16.0351 9.18597 15.8042 8.93921 15.5233 8.93921ZM15.0577 7.03333C14.8154 3.51981 12.0077 0.712166 8.49418 0.469814C8.22595 0.451284 8.00006 0.67746 8.00006 0.946283V7.52745H14.5815C14.8504 7.52745 15.0762 7.30156 15.0577 7.03333ZM6.5883 8.93921V1.9601C6.5883 1.67922 6.34153 1.44834 6.06359 1.48775C2.55859 1.98305 -0.120524 5.0451 0.00418193 8.7148C0.132417 12.4836 3.37742 15.5742 7.14801 15.5268C8.63036 15.5083 10.0001 15.0307 11.1262 14.2318C11.3586 14.0671 11.3739 13.7251 11.1724 13.5236L6.5883 8.93921Z" fill="#9FA2B4"/>
</svg>
